# xmcd CD database file generated by Grip 3.1.3
# 
# Track frame offsets:
#       150
#       16412
#       29842
# 
# Disc length: 613 seconds
# 
# Revision: 3
# Processed by: cddbd v1.5.1PL0 Copyright (c) Steve Scherf et al.
# Submitted via: Grip 3.1.3
# 
DISCID=20026303
DTITLE=T666 - Troops Of Satan
DYEAR=1999
DGENRE=Death Metal
TTITLE0=Comrades In Slaughter
TTITLE1=Execute All Chrisitans
TTITLE2=Smash The Cross
EXTD=
EXTT0=
EXTT1=
EXTT2=
PLAYORDER=
